<?xml version="1.0" encoding="UTF-8" standalone="no"?>
<svg
   viewBox="0 0 1918.7 1918.6999"
   version="1.1"
   id="svg4"
   sodipodi:docname="Apache_Log4j_Logo.svg"
   width="1918.7"
   height="1918.7"
   inkscape:version="1.4 (e7c3feb100, 2024-10-09)"
   xmlns:inkscape="http://www.inkscape.org/namespaces/inkscape"
   xmlns:sodipodi="http://sodipodi.sourceforge.net/DTD/sodipodi-0.dtd"
   xmlns="http://www.w3.org/2000/svg"
   xmlns:svg="http://www.w3.org/2000/svg">
  <defs
     id="defs4" />
  <sodipodi:namedview
     id="namedview4"
     pagecolor="#ffffff"
     bordercolor="#000000"
     borderopacity="0.25"
     inkscape:showpageshadow="2"
     inkscape:pageopacity="0.0"
     inkscape:pagecheckerboard="0"
     inkscape:deskcolor="#d1d1d1"
     inkscape:zoom="0.31544797"
     inkscape:cx="1047.7164"
     inkscape:cy="802.03401"
     inkscape:window-width="2560"
     inkscape:window-height="1366"
     inkscape:window-x="0"
     inkscape:window-y="0"
     inkscape:window-maximized="1"
     inkscape:current-layer="svg4" />
  <g
     fill="#e84c3c"
     id="g2"
     transform="translate(0,562.4978)">
    <path
       d="m 1510.2,793.5 c -444.4,-20.8 -529.1,-633 -110.3,-773.6 241.4,-82.8 512,103.3 518.2,359.1 13.3,230 -184.2,422.2 -408,414.5 z m -112,-397.2 h -202.8 c -7.5,0 -7.8,0 -7.2,7.3 1.3,15.5 2.1,31 4.5,46.4 25,178.1 207,306.5 383.3,273 154,-24.6 274.2,-163.8 274.9,-320 0.1,-6.7 0,-6.7 -6.9,-6.7 h -200.6 c 28.5,-18.1 46.6,-57.4 25,-86.2 40.3,-38.8 59.8,-85.5 41.5,-140.3 -48.2,-127 -250,-139.4 -348.6,-66.3 -90.8,72 -4.5,142.6 82,105.8 a 99.2,99.2 0 0 1 47.1,-7.2 c 24.8,0.8 59,22.3 41,49.8 -24.5,38.5 -77.4,28.4 -113.2,13.6 a 78.4,78.4 0 0 0 -44.1,-6.2 c -79.1,16.5 -24.6,112.3 24,137 z"
       id="path1" />
    <path
       d="m 1510.2,383.7 c -47.9,0.6 -107.5,-18.6 -118.7,-71 -1.4,-7.9 2.7,-13.6 10.5,-13.2 39,3.7 77.7,16.2 116.6,4.6 50.4,-10 83.2,-72.3 36.8,-108.6 -35.4,-26.1 -83.9,-23.9 -123.4,-9 -37.6,17.1 -72.7,-7.7 -37.9,-43.2 65.7,-55.6 193,-54.8 247.6,16.6 53.1,65.4 -18.4,150.8 -88,163.8 -15.4,3.6 -31.6,4.7 -47.4,7 -7.7,0.8 -31,4.1 -17,14.7 18.7,7.7 40.7,2.4 60.3,1.4 16,-2.3 31.5,-6.8 47.3,-10.2 10,-3.3 23.8,3.3 17,15 -24.8,30.8 -68,28.6 -103.7,32.1 z"
       id="path2" />
  </g>
  <path
     d="m 0,834.5978 h 67.6 v 182.3 c 0,11.4 3.7,15.2 14.9,15.2 h 84 v 69.4 h -85 c -40.4,0.2 -69.8,-23.6 -81.5,-61.6 v -205.4 z m 180.4,133.4 c -4,-64 2.1,-128.8 81,-133.3 H 324 c 101,3 79.5,115.2 81,185.3 a 80.5,80.5 0 0 1 -81.2,81.5 h -62.2 c -79.2,-4.4 -85.1,-69.2 -81.2,-133.5 z m 69.4,-0.3 v 50.6 c 0,9.4 4.3,13.7 13.5,13.8 H 322 c 9,0 13.4,-4.4 13.4,-13.3 -5.2,-132.6 26.4,-113.7 -71.5,-114.7 -10,0 -14.2,4.2 -14.2,14 v 49.7 z m 384.5,-132.8 v 69.2 H 505 c -11,0 -15,4 -15,15.1 5.3,130.8 -27.3,111.8 75,112.8 v -61.5 h 69 v 131 c -75,-5.6 -208.6,30.8 -213.5,-81 -10.2,-209.9 28.9,-185.6 213.7,-185.6 z m 145.8,119.3 v -119.2 h 69 v 266.2 h -68.8 v -77.7 c -30,-0.7 -61,3.5 -89.8,-6.3 -65.3,-22.4 -33.5,-90.5 -18.9,-137.5 4.7,-15 9,-30 14.2,-45 h 71 c -10.5,36.5 -23.5,71.9 -32.6,108.5 0,6.3 4,10.7 10.4,10.8 15,0.2 29.9,0 45.5,0 z m 83.1,44.5 h 69.4 c 1,12.4 -5.3,34 13.6,33.4 H 978 c 10.4,0 14.4,-4 14.4,-14.2 v -182.8 h 69.4 v 184.3 c 0,46.7 -35.3,82 -82,82 -73.1,6.9 -123.2,-23.5 -116.6,-102.7 z"
     fill="#231f20"
     id="path3" />
  <path
     d="m 1398.1,958.7978 -12,-8.2 a 126.3,126.3 0 0 1 -50.9,-73 c -8.4,-32.7 16,-52 38.9,-55.8 15.4,-2.6 30,0.3 44.1,6.2 a 146.2,146.2 0 0 0 61.7,13 c 21.2,-0.8 39.7,-7.5 51.5,-26.6 8.5,-13.7 5.8,-27.7 -7,-37.4 a 64.7,64.7 0 0 0 -34,-12.4 99.4,99.4 0 0 0 -47,7.2 116.2,116.2 0 0 1 -79,5.2 84.7,84.7 0 0 1 -15.6,-6.5 c -22.4,-12 -30.7,-32.4 -23.4,-56.8 a 93,93 0 0 1 35.9,-47.6 219,219 0 0 1 87.4,-38.4 281.5,281.5 0 0 1 194.5,27.5 c 32,16.8 55.7,42 66.7,77 15.6,50 4,93.6 -32.8,130.7 -3,3 -5.6,6.2 -8.7,9.7 10.6,13.7 11.6,29.8 6.5,46.5 -5.1,16.7 -16.3,29 -31.5,39.7 H 1844 c 6.9,0 7,0 6.9,6.6 a 324.8,324.8 0 0 1 -109.3,239.5 322.5,322.5 0 0 1 -165.6,80.6 c -28.3,5 -56.8,6.2 -85.4,3.4 a 326.5,326.5 0 0 1 -231.3,-125 315,315 0 0 1 -66.6,-151.5 c -2.4,-15.3 -3.2,-30.9 -4.5,-46.3 -0.6,-7.3 -0.3,-7.3 7.2,-7.3 z m 112,-12.6 c 15.4,-1.3 30.8,-2 46,-4 a 95.4,95.4 0 0 0 51.4,-21 30,30 0 0 0 6.4,-7.2 c 4.2,-7 0.3,-14.6 -7.9,-15.4 a 30,30 0 0 0 -9,0.5 c -15.9,3.4 -31.5,8 -47.4,10.1 -15.4,2.2 -31,2.2 -46.6,2.5 -4.6,0 -9.4,-1.9 -13.7,-3.8 -2,-0.9 -4.3,-3.9 -4.4,-6 0,-1.8 2.6,-4.7 4.5,-5.3 5.5,-1.7 11.2,-2.5 16.9,-3.4 15.8,-2.4 32,-3.4 47.5,-7 a 142.4,142.4 0 0 0 93.7,-68.5 c 19,-32.5 16.9,-66.2 -5.8,-95.3 a 131.4,131.4 0 0 0 -61.5,-44.6 c -43.9,-15 -88,-13.4 -132.1,-1.3 a 118,118 0 0 0 -54,29.3 c -6.1,6 -11,12.9 -13.3,21.4 -2.9,10.6 1,19.8 11.1,24.2 3.9,1.7 8.3,2.6 12.5,3 9.7,1 18.7,-2.2 27.6,-5.4 a 152.5,152.5 0 0 1 71.7,-10 c 18.8,2.3 36.5,7.2 51.7,19 a 55.7,55.7 0 0 1 5.5,84.6 91.3,91.3 0 0 1 -42.3,24 c -28.2,7.5 -56.5,5.3 -84.8,-0.3 a 264,264 0 0 0 -31.8,-4.3 c -7.8,-0.4 -12,5.3 -10.5,13.1 a 52,52 0 0 0 3,11.1 c 9,22 25.6,36.5 46.7,46.4 a 163,163 0 0 0 69,13.6 z"
     fill="#ffffff"
     id="path4" />
</svg>
