<svg width="512" height="512" viewBox="0 0 512 512" fill="none" xmlns="http://www.w3.org/2000/svg">
<path fill-rule="evenodd" clip-rule="evenodd" d="M284.369 439.537H290.218V388.339H284.369V439.537ZM392.517 389.997C393.25 390.781 393.622 391.775 393.622 392.975C393.622 394.171 393.25 395.163 392.517 395.949C391.783 396.729 390.819 397.125 389.626 397.125C388.432 397.125 387.471 396.729 386.737 395.949C386.004 395.163 385.638 394.171 385.638 392.975C385.638 391.775 386.004 390.781 386.737 389.997C387.471 389.215 388.432 388.825 389.626 388.825C390.819 388.825 391.783 389.215 392.517 389.997ZM268.922 427.877C268.372 429.471 267.58 430.821 266.55 431.926C265.517 433.034 264.288 433.9 262.867 434.522C261.445 435.14 259.84 435.455 258.049 435.455C256.266 435.455 254.657 435.14 253.234 434.522C251.811 433.9 250.584 433.034 249.55 431.926C248.521 430.821 247.727 429.471 247.178 427.877C246.628 426.285 246.352 424.519 246.352 422.584C246.352 420.647 246.628 418.882 247.178 417.292C247.727 415.703 248.521 414.355 249.55 413.242C250.584 412.14 251.811 411.274 253.234 410.652C254.657 410.028 256.266 409.718 258.049 409.718C259.84 409.718 261.445 410.028 262.867 410.652C264.288 411.274 265.517 412.14 266.55 413.242C267.58 414.355 268.372 415.703 268.922 417.292C269.473 418.882 269.75 420.647 269.75 422.584C269.75 424.519 269.473 426.285 268.922 427.877ZM270.677 409.649C269.099 408.034 267.227 406.766 265.069 405.839C262.912 404.916 260.571 404.458 258.049 404.458C255.529 404.458 253.189 404.916 251.031 405.839C248.874 406.766 247.006 408.034 245.423 409.649C243.84 411.263 242.601 413.174 241.706 415.387C240.813 417.603 240.363 420.003 240.363 422.584C240.363 425.169 240.813 427.564 241.706 429.781C242.601 431.993 243.84 433.911 245.423 435.524C247.006 437.138 248.874 438.408 251.031 439.329C253.189 440.248 255.529 440.713 258.049 440.713C260.571 440.713 262.912 440.248 265.069 439.329C267.227 438.408 269.099 437.138 270.677 435.524C272.259 433.911 273.501 431.993 274.393 429.781C275.288 427.564 275.735 425.169 275.735 422.584C275.735 420.003 275.288 417.603 274.393 415.387C273.501 413.174 272.259 411.263 270.677 409.649ZM386.737 439.535H392.586V405.428H386.737V439.535ZM228.356 408.231C230.466 410.741 231.521 414.424 231.521 419.266V439.537H225.673V420.3C225.673 416.611 225.044 413.911 223.781 412.21C222.519 410.5 220.512 409.649 217.762 409.649C214.731 409.649 212.379 410.652 210.706 412.657C209.031 414.663 208.194 417.463 208.194 421.065V439.537H202.345V405.428H207.85L207.94 411.481C208.723 409.6 209.881 408.062 211.428 406.879C213.54 405.265 216.105 404.458 219.136 404.458C223.173 404.458 226.248 405.713 228.356 408.231ZM327.341 427.877C326.791 429.471 325.997 430.821 324.97 431.926C323.934 433.034 322.707 433.9 321.284 434.522C319.862 435.14 318.257 435.455 316.468 435.455C314.681 435.455 313.075 435.14 311.651 434.522C310.228 433.9 309.002 433.034 307.969 431.926C306.938 430.821 306.145 429.471 305.597 427.877C305.045 426.285 304.771 424.519 304.771 422.584C304.771 420.647 305.045 418.882 305.597 417.292C306.145 415.703 306.938 414.355 307.969 413.242C309.002 412.14 310.228 411.274 311.651 410.652C313.075 410.028 314.681 409.718 316.468 409.718C318.257 409.718 319.862 410.028 321.284 410.652C322.707 411.274 323.934 412.14 324.97 413.242C325.997 414.355 326.791 415.703 327.341 417.292C327.89 418.882 328.169 420.647 328.169 422.584C328.169 424.519 327.89 426.285 327.341 427.877ZM329.098 409.649C327.514 408.034 325.644 406.766 323.486 405.839C321.33 404.916 318.99 404.458 316.468 404.458C313.948 404.458 311.607 404.916 309.448 405.839C307.292 406.766 305.423 408.034 303.84 409.649C302.258 411.263 301.018 413.174 300.125 415.387C299.231 417.603 298.782 420.003 298.782 422.584C298.782 425.169 299.231 427.564 300.125 429.781C301.018 431.993 302.258 433.911 303.84 435.524C305.423 437.138 307.292 438.408 309.448 439.329C311.607 440.248 313.948 440.713 316.468 440.713C318.99 440.713 321.33 440.248 323.486 439.329C325.644 438.408 327.514 437.138 329.098 435.524C330.678 433.911 331.919 431.993 332.811 429.781C333.706 427.564 334.152 425.169 334.152 422.584C334.152 420.003 333.706 417.603 332.811 415.387C331.919 413.174 330.678 411.263 329.098 409.649ZM466 430.405C466 433.587 464.749 436.1 462.249 437.947C459.747 439.788 456.388 440.713 452.171 440.713C449.966 440.713 447.785 440.401 445.63 439.776C443.478 439.158 441.755 438.359 440.471 437.392L442.882 433.172C445.858 434.924 448.957 435.801 452.171 435.801C454.689 435.801 456.645 435.361 458.016 434.484C459.392 433.606 460.081 432.366 460.081 430.751C460.081 430.013 459.98 429.363 459.773 428.813C459.564 428.26 459.161 427.76 458.568 427.327C457.971 426.885 457.143 426.46 456.089 426.047C455.036 425.629 453.658 425.169 451.964 424.66C448.244 423.555 445.584 422.192 443.978 420.579C442.372 418.963 441.57 416.845 441.57 414.215C441.57 411.263 442.706 408.897 444.976 407.12C447.246 405.347 450.31 404.458 454.163 404.458C455.908 404.458 457.764 404.723 459.736 405.252C461.71 405.781 463.359 406.463 464.691 407.297L462.42 411.516C459.577 410.082 456.823 409.373 454.163 409.373C449.528 409.373 447.215 410.774 447.215 413.59C447.215 415.021 447.741 416.163 448.795 417.016C449.849 417.868 451.686 418.687 454.304 419.473C456.503 420.116 458.348 420.786 459.84 421.479C461.33 422.168 462.535 422.942 463.454 423.795C464.37 424.65 465.023 425.616 465.414 426.702C465.808 427.787 466 429.019 466 430.405ZM87.9761 393.734H70.0833V439.537H63.8912V393.734H46V388.409H87.9761V393.734ZM100.734 409.51C102.617 409.51 104.199 409.845 105.486 410.515C106.769 411.179 107.8 412.045 108.582 413.105C109.361 414.168 109.921 415.387 110.266 416.776C110.539 417.863 110.672 418.974 110.73 420.094H90.0807C90.4096 417.192 91.3176 414.823 92.8239 413.003C94.7505 410.673 97.3861 409.51 100.734 409.51ZM112.125 409.163C110.771 407.686 109.154 406.534 107.274 405.702C105.392 404.876 103.328 404.458 101.08 404.458C98.6021 404.458 96.3322 404.907 94.2676 405.808C92.2047 406.708 90.4256 407.976 88.9354 409.613C87.4435 411.249 86.2869 413.213 85.4608 415.495C84.6346 417.779 84.2208 420.279 84.2208 422.998C84.2208 428.579 85.873 432.927 89.176 436.042C92.479 439.158 97.1134 440.713 103.076 440.713C105.506 440.713 107.858 440.437 110.13 439.884C112.401 439.329 114.316 438.566 115.877 437.6L113.673 433.311C110.141 434.737 106.7 435.455 103.352 435.455C98.9919 435.455 95.6664 434.403 93.3741 432.306C91.4635 430.56 90.3631 428.024 90.0422 424.727H116.219C116.265 424.268 116.299 423.85 116.323 423.487C116.344 423.113 116.357 422.447 116.357 421.479C116.357 418.939 115.99 416.623 115.256 414.523C114.522 412.423 113.477 410.637 112.125 409.163ZM417.594 409.51C423.464 409.51 426.791 412.461 427.574 418.363C427.662 418.734 427.72 419.169 427.742 419.679C427.744 419.719 427.744 419.774 427.747 419.815H407.276C407.602 417.118 408.481 414.863 409.925 413.073C411.824 410.694 414.381 409.51 417.594 409.51ZM429.156 409.06C427.824 407.607 426.206 406.476 424.303 405.666C422.399 404.862 420.277 404.458 417.939 404.458C415.552 404.458 413.35 404.907 411.333 405.808C409.314 406.708 407.57 407.976 406.104 409.613C404.633 411.249 403.486 413.186 402.66 415.426C401.838 417.661 401.423 420.094 401.423 422.721C401.423 428.442 403.043 432.868 406.274 436.008C409.508 439.145 414.062 440.713 419.933 440.713C422.455 440.713 424.863 440.411 427.158 439.814C429.452 439.214 431.469 438.38 433.212 437.322L431.148 432.897C427.479 434.598 423.833 435.455 420.208 435.455C412.236 435.455 407.923 431.781 407.236 424.45H433.212C433.261 423.99 433.294 423.576 433.322 423.208C433.339 422.837 433.35 422.168 433.35 421.203C433.35 418.665 432.986 416.371 432.253 414.316C431.52 412.266 430.484 410.515 429.156 409.06ZM151.35 433.724L153.484 438.085C152.014 438.911 150.328 439.561 148.427 440.022C146.523 440.482 144.606 440.713 142.68 440.713C139.835 440.713 137.254 440.3 134.938 439.467C132.622 438.637 130.648 437.434 129.02 435.869C127.392 434.3 126.141 432.408 125.27 430.195C124.399 427.982 123.964 425.516 123.964 422.792C123.964 420.073 124.41 417.592 125.305 415.357C126.198 413.118 127.448 411.194 129.055 409.579C130.661 407.965 132.599 406.708 134.869 405.808C137.14 404.907 139.627 404.458 142.335 404.458C145.959 404.458 149.446 405.379 152.795 407.228L150.524 411.516C149.332 410.918 148.049 410.466 146.671 410.165C145.294 409.866 143.94 409.718 142.612 409.718C138.711 409.718 135.628 410.87 133.356 413.174C131.085 415.482 129.949 418.597 129.949 422.516C129.949 426.576 131.107 429.748 133.425 432.031C135.74 434.314 138.94 435.455 143.025 435.455C145.684 435.455 148.461 434.876 151.35 433.724ZM188.029 408.26C190.163 410.802 191.23 414.466 191.23 419.266V439.537H185.379V420.3C185.379 416.611 184.738 413.911 183.453 412.21C182.168 410.5 180.15 409.649 177.398 409.649C174.37 409.649 172.017 410.652 170.342 412.657C168.669 414.663 167.833 417.463 167.833 421.065V439.537H161.982V388.339H167.833V411.016C168.656 409.253 169.82 407.81 171.341 406.708C173.406 405.208 175.883 404.458 178.773 404.458C182.809 404.458 185.894 405.726 188.029 408.26ZM367.119 431.824C366.088 432.951 364.859 433.842 363.436 434.484C362.015 435.132 360.478 435.455 358.828 435.455C355.252 435.455 352.416 434.314 350.329 432.031C348.242 429.748 347.197 426.645 347.197 422.721C347.197 420.829 347.485 419.089 348.057 417.502C348.633 415.908 349.438 414.536 350.465 413.382C351.503 412.228 352.725 411.332 354.148 410.684C355.57 410.039 357.13 409.718 358.828 409.718C360.57 409.718 362.164 410.028 363.61 410.652C365.055 411.274 366.284 412.15 367.293 413.282C368.3 414.411 369.08 415.781 369.632 417.394C370.182 419.008 370.456 420.786 370.456 422.721C370.456 424.569 370.161 426.264 369.563 427.81C368.966 429.353 368.153 430.693 367.119 431.824ZM370.047 411.521C368.961 409.652 367.588 408.11 365.915 406.912C363.619 405.278 360.984 404.458 358.003 404.458C355.614 404.458 353.402 404.931 351.36 405.878C349.318 406.823 347.544 408.113 346.031 409.75C344.514 411.389 343.333 413.311 342.488 415.528C341.634 417.74 341.215 420.142 341.215 422.721C341.215 425.395 341.6 427.842 342.382 430.058C343.161 432.271 344.262 434.161 345.688 435.734C347.104 437.295 348.803 438.521 350.776 439.397C352.748 440.272 354.928 440.713 357.315 440.713C360.478 440.713 363.253 439.926 365.639 438.359C367.453 437.166 368.918 435.597 370.042 433.655V437.669C370.042 442.601 369.024 446.224 366.982 448.529C364.944 450.838 361.763 451.992 357.453 451.992C352.498 451.992 348.622 451.09 345.824 449.293L344.307 454.067C344.903 454.527 345.698 454.943 346.684 455.308C347.667 455.682 348.749 456.003 349.916 456.282C351.086 456.558 352.324 456.774 353.632 456.937C354.937 457.099 356.235 457.179 357.523 457.179C369.768 457.179 375.893 450.466 375.893 437.045V405.428H370.182L370.047 411.521Z" fill="#CE1126"/>
<path fill-rule="evenodd" clip-rule="evenodd" d="M194.844 365.573L180.249 331.863H193.813L201.041 350.911L207.857 331.863H221.146L199.026 383.146H186.49L194.844 365.573ZM281.012 367.58V348.208C281.012 343.967 279.43 341.845 276.263 341.845C274.52 341.845 273.202 342.432 272.307 343.606C271.411 344.782 270.966 346.479 270.966 348.691V367.58H258.577V315H270.966V335.685C271.974 334.121 273.348 332.909 275.094 332.053C276.836 331.2 278.807 330.774 281.012 330.774C285.093 330.774 288.181 332.043 290.266 334.579C292.355 337.117 293.399 340.875 293.399 345.856V367.58H281.012ZM414.957 334.579C417.045 337.117 418.089 340.875 418.089 345.856V367.58H405.701V348.208C405.701 343.967 404.12 341.845 400.952 341.845C399.208 341.845 397.892 342.432 396.996 343.606C396.102 344.782 395.655 346.479 395.655 348.691V367.58H383.267V331.879H395.38L395.518 336.309C396.434 334.558 397.775 333.195 399.542 332.226C401.308 331.258 403.361 330.774 405.701 330.774C409.784 330.774 412.869 332.043 414.957 334.579ZM309.331 346.427C310.276 341.608 312.872 339.2 317.105 339.2C319.165 339.2 320.838 339.829 322.121 341.088C323.402 342.353 324.181 344.13 324.462 346.427H309.331ZM334.687 348.624C334.687 345.856 334.284 343.375 333.482 341.185C332.677 338.996 331.522 337.127 330.006 335.58C328.492 334.037 326.655 332.85 324.504 332.017C322.344 331.19 319.935 330.774 317.278 330.774C314.523 330.774 312.014 331.235 309.74 332.156C307.471 333.082 305.509 334.369 303.858 336.032C302.206 337.69 300.934 339.687 300.04 342.019C299.145 344.345 298.697 346.919 298.697 349.73C298.697 352.638 299.188 355.266 300.176 357.617C301.161 359.969 302.586 361.967 304.444 363.601C306.3 365.241 308.547 366.498 311.186 367.373C313.823 368.249 316.794 368.69 320.1 368.69C322.85 368.69 325.501 368.365 328.047 367.722C330.591 367.075 332.76 366.151 334.547 364.952L330.627 356.996C329.157 357.643 327.563 358.138 325.843 358.483C324.123 358.827 322.575 358.999 321.199 358.999C315.556 358.999 310.571 356.974 309.335 352.912H334.273C334.547 351.762 334.687 350.33 334.687 348.624ZM364.141 355.89C362.715 357.456 360.835 358.241 358.496 358.241C356.157 358.241 354.275 357.456 352.854 355.89C351.429 354.322 350.72 352.269 350.72 349.73C350.72 347.195 351.429 345.143 352.854 343.572C354.275 342.004 356.157 341.221 358.496 341.221C360.835 341.221 362.715 342.004 364.141 343.572C365.559 345.143 366.273 347.195 366.273 349.73C366.273 352.269 365.559 354.322 364.141 355.89ZM372.465 336.172C370.721 334.464 368.657 333.138 366.273 332.19C363.883 331.247 361.293 330.774 358.496 330.774C355.695 330.774 353.104 331.247 350.72 332.19C348.333 333.138 346.269 334.464 344.527 336.172C342.783 337.877 341.418 339.883 340.433 342.19C339.445 344.495 338.952 347.008 338.952 349.73C338.952 352.453 339.445 354.966 340.433 357.274C341.418 359.577 342.783 361.585 344.527 363.293C346.269 365.001 348.333 366.323 350.72 367.27C353.104 368.215 355.695 368.69 358.496 368.69C361.293 368.69 363.883 368.215 366.273 367.27C368.657 366.323 370.721 365.001 372.465 363.293C374.207 361.585 375.572 359.577 376.557 357.274C377.545 354.966 378.041 352.453 378.041 349.73C378.041 347.008 377.545 344.495 376.557 342.19C375.572 339.883 374.207 337.877 372.465 336.172ZM163.295 355.438C161.962 356.891 160.244 357.617 158.133 357.617C156.022 357.617 154.291 356.891 152.937 355.438C151.585 353.987 150.908 352.083 150.908 349.73C150.908 347.377 151.585 345.477 152.937 344.024C154.291 342.569 156.022 341.845 158.133 341.845C160.244 341.845 161.962 342.569 163.295 344.024C164.622 345.477 165.291 347.377 165.291 349.73C165.291 352.083 164.622 353.987 163.295 355.438ZM176.986 331.879H165.358L165.222 336.032C164.164 334.369 162.754 333.082 160.99 332.156C159.222 331.235 157.262 330.774 155.104 330.774C152.765 330.774 150.585 331.258 148.569 332.226C146.549 333.195 144.794 334.534 143.304 336.24C141.812 337.946 140.655 339.966 139.828 342.293C139.003 344.622 138.589 347.148 138.589 349.869C138.589 352.638 138.99 355.174 139.794 357.48C140.596 359.788 141.709 361.769 143.132 363.43C144.554 365.09 146.251 366.381 148.224 367.302C150.195 368.228 152.375 368.69 154.762 368.69C157.055 368.69 159.107 368.236 160.919 367.338C162.732 366.44 164.164 365.159 165.222 363.498L165.358 367.58H176.986V331.879ZM107.212 325.514H111.134C117.097 325.514 120.079 327.914 120.079 332.711C120.079 337.65 117.052 340.114 110.996 340.114H107.212V325.514ZM114.091 350.561L123.244 367.58H138.384L125.377 346.756C127.901 345.28 129.85 343.306 131.228 340.843C132.604 338.371 133.291 335.685 133.291 332.78C133.291 330.013 132.821 327.522 131.881 325.308C130.939 323.093 129.598 321.226 127.856 319.706C126.112 318.181 123.979 317.019 121.455 316.211C118.932 315.405 116.064 315 112.854 315H94V367.58H107.212V350.628H110.996L114.091 350.561ZM249.116 368.204C247.305 368.525 245.434 368.69 243.508 368.69C234.561 368.69 230.091 364.007 230.091 354.641V341.913H224.106V331.879H230.091V322.679H242.475V331.879H254.036L250.942 341.913H242.475V352.501C242.475 354.666 242.821 356.177 243.508 357.03C244.198 357.885 245.367 358.312 247.018 358.312C248.898 358.312 250.735 357.964 252.525 357.274L253.763 366.89C252.477 367.443 250.929 367.88 249.116 368.204Z" fill="#CE1126"/>
<path fill-rule="evenodd" clip-rule="evenodd" d="M260.849 120.597C263.089 120.821 265.28 121.213 267.407 121.757L278.828 56.209C276.67 55.7535 274.482 55.3699 272.278 55.0442L260.849 120.597ZM226.337 132.212L176.051 89.4948C173.72 92.0508 171.508 94.72 169.418 97.4885L219.586 140.129C221.522 137.228 223.787 134.575 226.337 132.212ZM314.029 70.4795C312.266 69.3726 310.482 68.3016 308.656 67.2941L275.794 124.851C277.675 125.773 279.487 126.819 281.208 127.989L314.029 70.4795ZM338.857 91.8631L288.722 134.434C289.955 135.751 291.108 137.142 292.178 138.602L342.292 96.0532C341.183 94.6289 340.038 93.2294 338.857 91.8631ZM213.209 154.929C214.118 150.982 215.532 147.231 217.396 143.761L155.81 121.055C154.264 124.699 152.911 128.45 151.752 132.29L213.209 154.929ZM300.763 164.96C300.763 189.587 280.909 209.546 256.418 209.546C234.483 209.546 216.281 193.531 212.718 172.498L151.242 195.171C152.606 199.996 154.281 204.691 156.249 209.223L217.349 186.697L167.475 229.125C170.635 233.582 174.102 237.789 177.863 241.714L224.501 202.08L194.077 255.662C198.909 259.06 204.018 262.085 209.374 264.671L237.964 214.333L227.987 271.613C234.093 273.275 240.407 274.401 246.886 274.97L256.193 221.437L265.532 275C272.313 274.431 278.919 273.244 285.29 271.483L276.629 221.791L301.57 265.535C308.398 262.394 314.852 258.577 320.845 254.152L297.955 214.045L332.955 243.765C338.536 238.228 343.533 232.097 347.843 225.462L316.565 198.919L354.854 213.03C358.401 205.643 361.141 197.788 363 189.595L329.389 177.221L365.105 177.215C365.567 173.086 365.825 168.896 365.825 164.645C365.825 159.721 365.476 154.885 364.861 150.135H298.243C299.868 154.775 300.763 159.76 300.763 164.96ZM212.073 164.96C212.073 162.484 212.284 160.061 212.671 157.695H147.236C147.088 159.994 147 162.305 147 164.645C147 166.823 147.08 168.987 147.203 171.137H212.506C212.229 169.117 212.073 167.061 212.073 164.96ZM230.716 128.643C233.11 126.924 235.682 125.439 238.403 124.221L205.536 66.5792C202.92 67.9732 200.377 69.472 197.89 71.0674L230.716 128.643ZM233.654 56.289C236.039 55.7756 238.461 55.3506 240.904 55L252.336 120.572C249.848 120.799 247.419 121.229 245.063 121.856L233.654 56.289Z" fill="#CE1126"/>
</svg>
