<?xml version="1.0" encoding="UTF-8" standalone="no"?>
<svg
   xmlns:dc="http://purl.org/dc/elements/1.1/"
   xmlns:cc="http://creativecommons.org/ns#"
   xmlns:rdf="http://www.w3.org/1999/02/22-rdf-syntax-ns#"
   xmlns:svg="http://www.w3.org/2000/svg"
   xmlns="http://www.w3.org/2000/svg"
   xmlns:sodipodi="http://sodipodi.sourceforge.net/DTD/sodipodi-0.dtd"
   xmlns:inkscape="http://www.inkscape.org/namespaces/inkscape"
   sodipodi:docname="jackbox games logo.svg"
   inkscape:version="1.0 (4035a4fb49, 2020-05-01)"
   id="svg1682"
   version="1.1"
   viewBox="0 0 104.6461 33.866669"
   height="33.866669mm"
   width="104.6461mm">
  <defs
     id="defs1676" />
  <sodipodi:namedview
     inkscape:window-maximized="1"
     inkscape:window-y="176"
     inkscape:window-x="-8"
     inkscape:window-height="1017"
     inkscape:window-width="1920"
     showgrid="false"
     inkscape:document-rotation="0"
     inkscape:current-layer="layer1"
     inkscape:document-units="mm"
     inkscape:cy="100.15033"
     inkscape:cx="168.85603"
     inkscape:zoom="1.979899"
     inkscape:pageshadow="2"
     inkscape:pageopacity="0.0"
     borderopacity="1.0"
     bordercolor="#666666"
     pagecolor="#ffffff"
     id="base" />
  <metadata
     id="metadata1679">
    <rdf:RDF>
      <cc:Work
         rdf:about="">
        <dc:format>image/svg+xml</dc:format>
        <dc:type
           rdf:resource="http://purl.org/dc/dcmitype/StillImage" />
        <dc:title></dc:title>
      </cc:Work>
    </rdf:RDF>
  </metadata>
  <g
     transform="translate(-52.589071,-98.855104)"
     id="layer1"
     inkscape:groupmode="layer"
     inkscape:label="Layer 1">
    <path
       id="path1105"
       style="fill:#0267ff;fill-opacity:1;fill-rule:nonzero;stroke:none;stroke-width:0.960053"
       d="m 103.22161,129.55165 c -0.073,0.18043 -0.1632,0.41763 -0.1632,0.61635 9.3e-4,0.47042 0.41666,0.74213 1.08774,0.74213 0.96005,-9.6e-4 1.70314,-0.52611 1.97387,-2.13901 l 0.18147,-1.12422 h -0.0912 c -0.58083,0.59812 -1.3412,0.96197 -2.30125,0.96292 -1.44968,9.6e-4 -3.0453,-0.83332 -3.04626,-3.38802 -0.002,-3.2786 1.88171,-5.36383 4.43546,-5.36574 1.46888,-9.5e-4 2.08524,0.90531 2.30317,1.30375 h 0.10848 l 0.57987,-1.12424 1.90187,-9.3e-4 -1.53513,8.73458 c -0.4157,2.42894 -1.73578,3.95062 -4.60058,3.95255 -2.46446,0.002 -3.55029,-0.88612 -3.55125,-2.08139 0,-0.4714 0.1613,-0.92455 0.34274,-1.17799 z m 3.36691,-3.55414 0.61444,-3.35251 c -0.19875,-0.52513 -0.72484,-0.97732 -1.44969,-0.97732 -1.30471,9.3e-4 -2.1918,1.5044 -2.19084,3.38996 9.3e-4,1.30375 0.70756,1.73961 1.45064,1.73866 0.47139,0 1.08775,-0.27266 1.57545,-0.79879" />
    <path
       id="path1109"
       style="fill:#0267ff;fill-opacity:1;fill-rule:nonzero;stroke:none;stroke-width:0.960053"
       d="m 110.14198,125.52488 c -0.002,-3.35251 1.95371,-5.67296 4.23672,-5.67391 1.46696,-0.002 2.08332,0.68642 2.44622,1.24807 l 0.10848,-9.5e-4 0.54339,-1.06854 1.95755,-9.2e-4 -1.12038,6.34212 c -0.0538,0.27266 -0.18049,0.87077 0.30913,0.86979 0.23522,0 0.48963,-0.0904 0.67108,-0.18233 l -0.25344,1.75787 c -0.38018,0.12763 -1.19623,0.27361 -1.70314,0.27456 -1.0695,0 -1.50441,-0.43488 -1.59561,-1.2135 h -0.0902 c -0.47042,0.45314 -1.32295,1.21448 -2.64495,1.21543 -1.50344,9.3e-4 -2.86288,-1.01285 -2.8648,-3.56755 m 6.24996,-3.01171 c -0.18147,-0.39937 -0.56259,-0.79779 -1.21447,-0.79779 -1.12519,9.3e-4 -2.26573,1.3431 -2.26381,3.7346 9.3e-4,1.32296 0.60003,1.77515 1.30663,1.77515 0.6346,0 1.14055,-0.34466 1.48425,-0.76229 z" />
    <path
       id="path1113"
       style="fill:#0267ff;fill-opacity:1;fill-rule:nonzero;stroke:none;stroke-width:0.960053"
       d="m 123.98472,121.54737 c 0.48771,-0.96102 1.33928,-1.7041 2.7352,-1.70505 1.44968,-9.3e-4 2.21005,0.70563 2.48175,1.77417 h 0.10945 c 0.48866,-0.90629 1.28551,-1.77608 2.66223,-1.77706 1.66762,-0.002 2.64687,0.86789 2.64783,2.53552 0,0.30722 -0.0547,0.67012 -0.10752,0.97734 l -0.5434,3.0088 c -0.0538,0.30915 -0.14402,0.85158 0.34562,0.85158 0.21793,0 0.47138,-0.0729 0.67012,-0.18151 l -0.2525,1.77512 c -0.39842,0.12682 -1.2135,0.27361 -1.70313,0.27361 -1.21448,0 -1.75786,-0.59713 -1.75786,-1.53896 0,-0.25445 0.0346,-0.48964 0.072,-0.72485 l 0.59522,-3.46194 c 0.0355,-0.21798 0.0538,-0.47042 0.0538,-0.63458 0,-0.63365 -0.28994,-1.01479 -0.97926,-1.01383 -0.77957,9.5e-4 -1.64746,0.72678 -2.00844,2.86385 l -0.74116,4.33176 -2.59023,9.5e-4 0.97542,-5.54434 c 0.0346,-0.21798 0.0711,-0.47137 0.0711,-0.63458 -7.2e-4,-0.6346 -0.27362,-1.01479 -0.96101,-1.01479 -0.77957,9.6e-4 -1.6657,0.72676 -2.04588,2.86481 l -0.75845,4.33081 -2.60847,0.003 1.11847,-6.3978 c 0.0557,-0.34467 0.0912,-0.79782 -0.39842,-0.79782 -0.23522,0 -0.47043,0.074 -0.6154,0.16519 l 0.19776,-1.7761 c 0.34466,-0.12763 1.08679,-0.25445 1.64938,-0.25527 1.14054,-9.2e-4 1.61193,0.63366 1.61289,1.30473 0,0.10858 -0.0182,0.27078 -0.0365,0.39746 z" />
    <path
       id="path1117"
       style="fill:#0267ff;fill-opacity:1;fill-rule:nonzero;stroke:none;stroke-width:0.960053"
       d="m 140.27446,119.83407 c 2.28301,-0.002 3.64245,1.21158 3.64341,2.87921 7.1e-4,0.61634 -0.18049,1.52168 -0.41475,2.04778 l -5.6,0.003 c -0.073,0.32739 -0.0893,0.58083 -0.0893,0.85159 0,1.12421 0.47235,1.64839 1.35944,1.64839 0.92549,0 1.73962,-0.41761 1.73866,-1.43239 l 2.39342,0.0346 c 7.2e-4,2.1918 -1.92011,3.20849 -4.18488,3.20947 -2.62671,0.002 -3.86038,-1.33834 -3.86134,-3.43892 -0.002,-3.17202 1.51784,-5.80067 5.01532,-5.80257 m 1.14343,3.4418 c 0.072,-0.1622 0.10847,-0.38116 0.10847,-0.61637 -7.2e-4,-0.81509 -0.58083,-1.12327 -1.30567,-1.12229 -0.9783,9.3e-4 -1.73962,0.49056 -2.06412,1.74057 z" />
    <path
       id="path1121"
       style="fill:#0267ff;fill-opacity:1;fill-rule:nonzero;stroke:none;stroke-width:0.960053"
       d="m 146.42207,125.86427 c -0.0365,0.16328 -0.073,0.30817 -0.072,0.52515 0,0.47138 0.28993,0.88805 1.44872,0.88707 1.10598,0 1.59561,-0.38113 1.59465,-0.90724 0,-0.43395 -0.34369,-0.63362 -0.97925,-0.79587 l -1.08582,-0.28994 c -1.70506,-0.45124 -2.57391,-1.12136 -2.57487,-2.39055 -7.2e-4,-1.77417 1.39208,-3.06257 4.25496,-3.06451 2.89937,-0.002 3.48021,1.32106 3.48021,2.26286 0,0.23513 -0.0538,0.56165 -0.12481,0.81703 l -2.30125,0.0365 c 0.072,-0.16328 0.0912,-0.34467 0.0912,-0.50787 -7.2e-4,-0.34369 -0.29089,-0.79683 -1.28839,-0.79588 -1.0503,0 -1.55817,0.41763 -1.55817,0.90629 7.2e-4,0.59811 0.50787,0.70662 1.08774,0.85061 l 1.19623,0.29089 c 1.65034,0.39651 2.44814,1.19337 2.4491,2.29837 7.2e-4,1.6494 -1.17703,3.08179 -4.36537,3.08372 -2.93585,0.002 -3.71637,-1.33929 -3.71637,-2.37134 -7.2e-4,-0.23513 0.0355,-0.52515 0.12673,-0.79781 z" />
    <path
       id="path1125"
       style="fill:#0267ff;fill-opacity:1;fill-rule:nonzero;stroke:none;stroke-width:0.960053"
       d="m 60.783141,118.56467 c 0.0019,3.33716 -1.679136,5.15455 -4.989407,5.1555 -1.361358,0.002 -2.322374,-0.13144 -3.204663,-0.34466 l 0.399381,-3.12403 c 0.560672,0.10668 1.148226,0.21309 1.815465,0.21309 0.774766,-9.3e-4 1.254791,-0.58851 1.253833,-2.11019 l -0.0087,-13.32269 4.726352,-0.003 z m -4.710031,-19.007162 4.724433,-0.003 0.003,3.577152 -4.725391,0.003 z" />
    <path
       id="path1129"
       style="fill:#0267ff;fill-opacity:1;fill-rule:nonzero;stroke:none;stroke-width:0.960053"
       d="m 62.672432,109.88607 c -0.0528,-0.29378 -0.07968,-0.64133 -0.07968,-0.96101 -0.0019,-2.56336 1.998834,-4.16665 6.512052,-4.16856 4.965407,-0.003 6.328686,2.31851 6.329644,4.88092 l 0.0038,4.5929 c 0,0.58756 0.213142,0.85445 0.587554,0.85445 0.214094,0 0.428185,-0.0272 0.641318,-0.0806 l 0.189139,2.98961 c -0.720996,0.21418 -1.629209,0.37537 -2.537419,0.37537 -2.188928,0.002 -2.643992,-1.11845 -2.697756,-2.05451 l -0.187206,9.3e-4 c -0.640355,0.80164 -2.214847,2.05739 -4.964446,2.05932 -2.722714,9.3e-4 -4.486336,-1.17222 -4.488257,-3.4946 -9.34e-4,-2.67088 2.080441,-4.27417 8.86227,-4.46522 l -9.37e-4,-0.88228 c -9.36e-4,-1.03974 -0.642276,-1.70796 -2.002673,-1.70698 -1.442963,0.002 -2.083321,0.48289 -2.08236,1.3892 0,0.13444 0.02694,0.32162 0.05378,0.50787 z m 5.398392,5.5232 c 1.039739,-9.6e-4 2.10732,-0.48099 2.775518,-1.20295 l -0.0019,-1.78955 c -3.470601,0.13634 -4.378813,0.85733 -4.377853,1.81834 9.36e-4,0.77476 0.561633,1.17511 1.604253,1.17416" />
    <path
       id="path1133"
       style="fill:#0267ff;fill-opacity:1;fill-rule:nonzero;stroke:none;stroke-width:0.960053"
       d="m 84.34827,104.74621 c 5.89954,-0.003 6.463091,3.19987 6.464052,4.72155 0,0.24003 0,0.48101 -0.07968,0.8007 l -4.645705,0.0566 c 0.02694,-0.15947 0.02694,-0.29377 0.02694,-0.40132 0,-0.66626 -0.348502,-1.89419 -1.950834,-1.89321 -1.414162,9.2e-4 -2.375176,0.82949 -2.373257,3.55316 9.36e-4,2.32238 0.85637,3.52339 2.378058,3.52244 1.601371,-0.002 1.947951,-1.2039 1.947951,-1.89707 0,-0.13335 0,-0.26697 -0.02694,-0.4013 l 4.645708,0.0245 c 0.07968,0.32066 0.07968,0.61444 0.07968,0.82755 9.36e-4,1.41609 -0.556832,4.69948 -6.458291,4.70332 -4.911644,0.003 -7.369385,-2.4779 -7.373225,-6.77608 -0.0019,-3.71155 2.212925,-6.83751 7.365543,-6.84039" />
    <path
       id="path1137"
       style="fill:#0267ff;fill-opacity:1;fill-rule:nonzero;stroke:none;stroke-width:0.960053"
       d="m 92.113004,98.867702 4.724432,-0.003 0.0076,11.186568 c 1.682015,-1.0964 3.576204,-2.91281 4.642824,-5.04893 l 5.09982,-0.003 v 0.53473 c -1.20007,2.1371 -3.14803,4.21944 -4.4297,5.31582 0.74884,0.88038 3.98231,6.05894 4.70523,6.69833 v 0.53378 l -5.02109,0.003 c -0.56061,-0.50692 -2.645845,-4.21751 -3.20652,-4.85691 -0.426263,0.31969 -1.361355,0.88228 -1.787622,1.12231 l 0.0019,3.73749 -4.724433,0.003 z" />
    <path
       id="path1141"
       style="fill:#0267ff;fill-opacity:1;fill-rule:nonzero;stroke:none;stroke-width:0.960053"
       d="m 107.62241,98.858104 4.72635,-0.003 0.005,7.422186 h 0.18625 c 0.61444,-0.80164 1.84043,-1.54954 3.63093,-1.55145 2.7496,-9.5e-4 5.71425,1.62537 5.71713,6.77894 0.004,5.12573 -2.8792,6.83655 -5.70849,6.83848 -2.37717,0.002 -3.57916,-1.11847 -4.1936,-1.81355 h -0.15936 l -0.64036,1.54952 -3.55125,0.002 z m 4.73595,15.242786 c 0.42722,0.53381 1.17415,0.98695 2.05644,0.986 1.46792,-9.5e-4 2.66991,-0.83047 2.66799,-3.58005 -0.003,-2.7765 -1.25767,-3.49558 -2.67183,-3.4946 -0.77573,0 -1.6033,0.42721 -2.05548,1.01476 z" />
    <path
       id="path1145"
       style="fill:#0267ff;fill-opacity:1;fill-rule:nonzero;stroke:none;stroke-width:0.960053"
       d="m 129.73247,104.7181 c 4.93949,-0.003 7.29067,2.74575 7.29355,6.83078 0.002,4.05815 -2.34542,6.78278 -7.28586,6.78566 -4.96541,0.003 -7.29066,-2.71885 -7.29258,-6.77605 -0.003,-4.08602 2.31757,-6.83753 7.28489,-6.84039 m 2.48655,6.83367 c -0.002,-2.69682 -1.0167,-3.55028 -2.48462,-3.54933 -1.49577,9.3e-4 -2.53647,0.8554 -2.53455,3.55317 0.002,2.6411 1.04262,3.52243 2.53935,3.52148 1.46792,-9.5e-4 2.48078,-0.88326 2.47982,-3.52532" />
    <path
       id="path1149"
       style="fill:#0267ff;fill-opacity:1;fill-rule:nonzero;stroke:none;stroke-width:0.960053"
       d="m 136.27919,117.63639 4.61499,-6.17026 -4.51514,-6.03202 v -0.45315 l 4.99228,-0.003 1.38921,2.1073 c 0.42722,0.64133 0.74884,1.22889 1.12326,2.05549 h 0.2141 c 0.4253,-0.82756 0.66627,-1.25574 1.17222,-2.02955 l 1.38728,-2.13708 4.96636,-0.003 v 0.4541 l -4.53433,5.92931 4.64954,6.27205 v 0.42721 l -4.96636,0.003 -1.57642,-2.42895 c -0.50882,-0.7738 -0.66819,-1.14726 -1.09542,-1.94793 h -0.21409 c -0.40034,0.80165 -0.64036,1.28165 -1.0935,1.97577 l -1.54665,2.40399 -4.96733,0.003 z" />
    <path
       id="path1153"
       style="fill:#0267ff;fill-opacity:1;fill-rule:nonzero;stroke:none;stroke-width:0.960053"
       d="m 157.23517,120.54507 c 7.2e-4,1.0119 -0.81316,1.81644 -1.84714,1.81644 -1.03398,9.2e-4 -1.85963,-0.80165 -1.86059,-1.81356 -7.2e-4,-1.01285 0.82373,-1.80585 1.86923,-1.80585 1.02342,-9.5e-4 1.8385,0.79109 1.8385,1.80297 m -3.24594,0.002 c 7.2e-4,0.80355 0.60675,1.44104 1.40936,1.44104 0.78148,0.0109 1.37576,-0.63939 1.3748,-1.43143 0,-0.80358 -0.59524,-1.45259 -1.3988,-1.45259 -0.78149,9.5e-4 -1.38632,0.65094 -1.38536,1.44298 m 1.11174,0.93412 -0.41762,9.6e-4 -7.2e-4,-1.80493 c 0.16415,-0.0218 0.39554,-0.0558 0.69219,-0.0558 0.34179,0 0.49539,0.0558 0.61732,0.14315 0.10946,0.0767 0.18721,0.20928 0.18721,0.38497 0,0.22071 -0.16514,0.3629 -0.37442,0.43012 v 0.0218 c 0.17664,0.0539 0.264,0.19785 0.3197,0.43872 0.0557,0.27555 0.0998,0.37444 0.13247,0.43973 l -0.44066,9.2e-4 c -0.0547,-0.0653 -0.0874,-0.21989 -0.14307,-0.4397 -0.0336,-0.18723 -0.14401,-0.27554 -0.37442,-0.27554 l -0.19776,9.5e-4 z m 0.0106,-1.0119 h 0.19777 c 0.23137,0 0.41858,-0.0778 0.41858,-0.26398 0,-0.16519 -0.12192,-0.27554 -0.38594,-0.27554 -0.10946,9.5e-4 -0.18626,0.0109 -0.23043,0.0218 z" />
  </g>
</svg>
